<svg xmlns="http://www.w3.org/2000/svg" width="52" height="52" viewBox="0 0 52 52">
    <g id="undefinedUser" transform="translate(-1158 -104)">
        <path id="Icon_awesome-user-alt"
              d="M18,20.25A10.125,10.125,0,1,0,7.875,10.125,10.128,10.128,0,0,0,18,20.25Zm9,2.25H23.126a12.24,12.24,0,0,1-10.252,0H9a9,9,0,0,0-9,9v1.125A3.376,3.376,0,0,0,3.375,36h29.25A3.376,3.376,0,0,0,36,32.625V31.5A9,9,0,0,0,27,22.5Z"
              transform="translate(1166 112)" fill="#2d2d2d"/>
        <g id="Ellipse_10" transform="translate(1158 104)" fill="none" stroke="#2d2d2d"
           stroke-width="1">
            <circle cx="26" cy="26" r="26" stroke="none"/>
            <circle cx="26" cy="26" r="25.5" fill="none"/>
        </g>
    </g>
</svg>

